<svg width="399" height="71" viewBox="0 0 399 71" fill="none" xmlns="http://www.w3.org/2000/svg">
<path d="M125.617 10.2388V29.5287C125.617 32.484 124.812 34.7605 123.201 36.358C121.59 37.9555 119.359 38.7542 116.51 38.7542C113.421 38.7542 110.971 37.8823 109.16 36.1383C107.349 34.3944 106.444 31.885 106.444 28.6101H113.195C113.195 31.246 114.193 32.5639 116.19 32.5639C117.921 32.5639 118.787 31.5522 118.787 29.5287V10.2388H125.617Z" fill="white"/>
<path d="M143.572 9.84777C146.235 9.84777 148.652 10.4668 150.822 11.7049C152.993 12.9429 154.704 14.6602 155.955 16.8568C157.207 19.0534 157.832 21.5361 157.832 24.3051C157.832 27.0741 157.2 29.5636 155.935 31.7734C154.67 33.9833 152.953 35.7073 150.782 36.9453C148.612 38.1834 146.209 38.8024 143.572 38.8024C140.936 38.8024 138.533 38.1834 136.362 36.9453C134.192 35.7073 132.474 33.9833 131.21 31.7734C129.945 29.5636 129.312 27.0741 129.312 24.3051C129.312 21.5361 129.945 19.0534 131.21 16.8568C132.474 14.6602 134.192 12.9429 136.362 11.7049C138.533 10.4668 140.936 9.84777 143.572 9.84777ZM143.572 16.1978C141.335 16.1978 139.558 16.9234 138.24 18.3744C136.922 19.8255 136.262 21.8024 136.262 24.3051C136.262 26.7813 136.922 28.7515 138.24 30.2159C139.558 31.6803 141.335 32.4124 143.572 32.4124C145.783 32.4124 147.553 31.6803 148.885 30.2159C150.216 28.7515 150.882 26.7813 150.882 24.3051C150.882 21.829 150.223 19.8588 148.905 18.3944C147.587 16.93 145.809 16.1978 143.572 16.1978Z" fill="white"/>
<path d="M186.084 10.2388L176.298 29.0894V38.4747H169.427V29.0894L159.641 10.2388H167.47L172.902 21.7409L178.335 10.2388H186.084Z" fill="white"/>
<path d="M201.614 9.94661C205.209 9.94661 208.185 10.8918 210.542 12.7822C212.898 14.6725 214.423 17.2285 215.115 20.4502H207.885C207.353 19.1455 206.534 18.1205 205.429 17.375C204.324 16.6295 203.012 16.2567 201.494 16.2567C199.497 16.2567 197.886 16.9889 196.661 18.4533C195.436 19.9177 194.824 21.8746 194.824 24.3241C194.824 26.7736 195.436 28.7239 196.661 30.175C197.886 31.626 199.497 32.3515 201.494 32.3515C203.012 32.3515 204.324 31.9788 205.429 31.2333C206.534 30.4878 207.353 29.476 207.885 28.198H215.115C214.423 31.393 212.898 33.9424 210.542 35.8461C208.185 37.7498 205.209 38.7016 201.614 38.7016C198.871 38.7016 196.461 38.0959 194.384 36.8845C192.307 35.673 190.703 33.9757 189.571 31.7924C188.439 29.6092 187.873 27.1197 187.873 24.3241C187.873 21.5285 188.439 19.039 189.571 16.8558C190.703 14.6726 192.307 12.9752 194.384 11.7638C196.461 10.5523 198.871 9.94661 201.614 9.94661Z" fill="white"/>
<path d="M225.764 15.6703V21.5811H235.311V26.733H225.764V33.0032H236.51V38.4747H218.934V10.2388H236.51V15.6703H225.764Z" fill="white"/>
<path d="M262.885 38.4747L256.773 27.8114H255.215V38.4747H248.385V10.2388H260.049C262.286 10.2388 264.176 10.6249 265.721 11.397C267.265 12.1692 268.424 13.2275 269.196 14.5721C269.968 15.9166 270.354 17.4542 270.354 19.1848C270.354 21.235 269.788 22.9789 268.657 24.4167C267.525 25.8544 265.881 26.8395 263.724 27.372L270.434 38.4747H262.885ZM255.215 23.1387H259.45C260.808 23.1387 261.806 22.8391 262.445 22.2401C263.084 21.641 263.404 20.7557 263.404 19.5842C263.404 18.466 263.078 17.5873 262.425 16.9483C261.773 16.3093 260.781 15.9898 259.45 15.9898H255.215V23.1387Z" fill="white"/>
<path d="M287.22 9.84777C289.883 9.84777 292.3 10.4668 294.47 11.7049C296.64 12.9429 298.351 14.6602 299.603 16.8568C300.854 19.0534 301.48 21.5361 301.48 24.3051C301.48 27.0741 300.848 29.5636 299.583 31.7734C298.318 33.9833 296.6 35.7073 294.43 36.9453C292.26 38.1834 289.856 38.8024 287.22 38.8024C284.584 38.8024 282.18 38.1834 280.01 36.9453C277.84 35.7073 276.122 33.9833 274.857 31.7734C273.592 29.5636 272.96 27.0741 272.96 24.3051C272.96 21.5361 273.592 19.0534 274.857 16.8568C276.122 14.6602 277.84 12.9429 280.01 11.7049C282.18 10.4668 284.584 9.84777 287.22 9.84777ZM287.22 16.1978C284.983 16.1978 283.206 16.9234 281.887 18.3744C280.569 19.8255 279.91 21.8024 279.91 24.3051C279.91 26.7813 280.569 28.7515 281.887 30.2159C283.206 31.6803 284.983 32.4124 287.22 32.4124C289.43 32.4124 291.201 31.6803 292.533 30.2159C293.864 28.7515 294.53 26.7813 294.53 24.3051C294.53 21.829 293.871 19.8588 292.553 18.3944C291.234 16.93 289.457 16.1978 287.22 16.1978Z" fill="white"/>
<path d="M322.225 23.9374C323.929 24.3368 325.281 25.1622 326.279 26.4135C327.278 27.6649 327.777 29.116 327.777 30.7667C327.777 33.1896 326.972 35.08 325.361 36.4379C323.75 37.7957 321.44 38.4747 318.43 38.4747H305.289V10.2388H318.111C320.987 10.2388 323.21 10.8645 324.782 12.1159C326.353 13.3673 327.138 15.1512 327.138 17.4675C327.138 19.1715 326.686 20.5893 325.78 21.7209C324.875 22.8524 323.69 23.5913 322.225 23.9374ZM312.119 21.7808H316.593C318.963 21.7808 320.148 20.769 320.148 18.7455C320.148 16.722 318.936 15.7103 316.513 15.7103H312.119V21.7808ZM316.992 32.9234C319.522 32.9234 320.787 31.885 320.787 29.8082C320.787 28.7965 320.454 28.0044 319.788 27.4319C319.123 26.8595 318.177 26.5733 316.952 26.5733H312.119V32.9234H316.992Z" fill="white"/>
<path d="M338.206 15.6703V21.5811H347.753V26.733H338.206V33.0032H348.951V38.4747H331.375V10.2388H348.951V15.6703H338.206Z" fill="white"/>
<path d="M367.33 38.4747L361.218 27.8114H359.66V38.4747H352.83V10.2388H364.494C366.73 10.2388 368.621 10.6249 370.166 11.397C371.71 12.1692 372.869 13.2275 373.641 14.5721C374.413 15.9166 374.799 17.4542 374.799 19.1848C374.799 21.235 374.233 22.9789 373.102 24.4167C371.97 25.8544 370.325 26.8395 368.168 27.372L374.879 38.4747H367.33ZM359.66 23.1387H363.894C365.252 23.1387 366.251 22.8391 366.89 22.2401C367.529 21.641 367.849 20.7557 367.849 19.5842C367.849 18.466 367.523 17.5873 366.87 16.9483C366.218 16.3093 365.226 15.9898 363.894 15.9898H359.66V23.1387Z" fill="white"/>
<path d="M398.511 10.2388V15.6703H390.841V38.4747H383.971V15.6703H376.381V10.2388H398.511Z" fill="white"/>
<path d="M109.747 58.3534H114.48V60.5101H106.931V46.4121H109.747V58.3534Z" fill="white"/>
<path d="M127.014 54.5884C127.014 54.8679 126.981 55.1874 126.915 55.5469H118.806C118.846 56.532 119.112 57.2575 119.605 57.7235C120.097 58.1894 120.71 58.4224 121.442 58.4224C122.095 58.4224 122.638 58.2626 123.071 57.9431C123.504 57.6236 123.779 57.191 123.899 56.6452H126.875C126.728 57.4173 126.415 58.1095 125.936 58.7219C125.457 59.3343 124.842 59.8135 124.09 60.1597C123.337 60.5058 122.501 60.6788 121.582 60.6788C120.504 60.6788 119.545 60.4481 118.706 59.9888C117.867 59.5295 117.215 58.875 116.749 58.023C116.283 57.171 116.05 56.1659 116.05 55.0077C116.05 53.8495 116.283 52.84 116.749 51.9813C117.215 51.1227 117.867 50.4682 118.706 50.0155C119.545 49.5629 120.504 49.3366 121.582 49.3366C122.674 49.3366 123.63 49.5629 124.449 50.0155C125.268 50.4682 125.9 51.0894 126.347 51.8815C126.793 52.6736 127.014 53.5766 127.014 54.5884ZM124.178 54.3088C124.218 53.4036 123.983 52.718 123.471 52.252C122.958 51.7861 122.328 51.5531 121.582 51.5531C120.823 51.5531 120.184 51.7861 119.665 52.252C119.145 52.718 118.859 53.4036 118.806 54.3088H124.178Z" fill="white"/>
<path d="M133.816 49.3366C134.748 49.3366 135.547 49.5562 136.213 49.9956C136.878 50.4349 137.351 51.0273 137.631 51.7728V49.4764H140.427V60.5391H137.631V58.2227C137.351 58.9682 136.878 59.5628 136.213 60.0088C135.547 60.4547 134.748 60.6788 133.816 60.6788C132.884 60.6788 132.045 60.4525 131.299 59.9999C130.554 59.5473 129.972 58.8905 129.553 58.0319C129.133 57.1732 128.923 56.1659 128.923 55.0077C128.923 53.8495 129.133 52.84 129.553 51.9813C129.972 51.1227 130.554 50.4682 131.299 50.0155C132.045 49.5629 132.884 49.3366 133.816 49.3366ZM134.695 51.7927C133.816 51.7927 133.11 52.079 132.578 52.6514C132.045 53.2238 131.779 54.0093 131.779 55.0077C131.779 56.0062 132.045 56.7872 132.578 57.3529C133.11 57.9187 133.816 58.2027 134.695 58.2027C135.547 58.2027 136.25 57.9121 136.803 57.333C137.355 56.7539 137.631 55.9795 137.631 55.0077C137.631 54.0226 137.355 53.2394 136.803 52.6603C136.25 52.0812 135.547 51.7927 134.695 51.7927Z" fill="white"/>
<path d="M148.309 57.6821L151.105 49.435H154.101L150.007 60.4977H146.572L142.477 49.435H145.493L148.309 57.6821Z" fill="white"/>
<path d="M166.511 54.5884C166.511 54.8679 166.477 55.1874 166.411 55.5469H158.302C158.342 56.532 158.608 57.2575 159.101 57.7235C159.594 58.1894 160.206 58.4224 160.938 58.4224C161.591 58.4224 162.134 58.2626 162.567 57.9431C163 57.6236 163.275 57.191 163.395 56.6452H166.371C166.224 57.4173 165.911 58.1095 165.432 58.7219C164.953 59.3343 164.338 59.8135 163.586 60.1597C162.833 60.5058 161.997 60.6788 161.078 60.6788C160 60.6788 159.041 60.4481 158.202 59.9888C157.363 59.5295 156.711 58.875 156.245 58.023C155.779 57.171 155.546 56.1659 155.546 55.0077C155.546 53.8495 155.779 52.84 156.245 51.9813C156.711 51.1227 157.363 50.4682 158.202 50.0155C159.041 49.5629 160 49.3366 161.078 49.3366C162.17 49.3366 163.126 49.5629 163.945 50.0155C164.764 50.4682 165.397 51.0894 165.843 51.8815C166.289 52.6736 166.511 53.5766 166.511 54.5884ZM163.675 54.3088C163.714 53.4036 163.479 52.718 162.967 52.252C162.454 51.7861 161.824 51.5531 161.078 51.5531C160.319 51.5531 159.68 51.7861 159.161 52.252C158.642 52.718 158.355 53.4036 158.302 54.3088H163.675Z" fill="white"/>
<path d="M179.754 58.087V60.5032H178.277C177.038 60.5032 176.091 60.2037 175.432 59.6046C174.773 59.0055 174.442 58.0071 174.442 56.6093V51.8168H172.904V49.4405H174.442V46.7048H177.258V49.4405H179.734V51.8168H177.258V56.6492C177.258 57.1817 177.364 57.5545 177.577 57.7675C177.791 57.9805 178.15 58.087 178.656 58.087H179.754Z" fill="white"/>
<path d="M188.857 49.2841C190.135 49.2841 191.153 49.7035 191.912 50.5421C192.671 51.3808 193.051 52.559 193.051 54.0766V60.5066H190.255V54.3961C190.255 53.5175 190.028 52.8341 189.576 52.3482C189.123 51.8623 188.504 51.6205 187.718 51.6205C186.919 51.6205 186.28 51.8801 185.801 52.3992C185.321 52.9184 185.082 53.6639 185.082 54.6357V60.5066H182.266V45.7297H185.082V51.6604C185.375 50.9149 185.858 50.3314 186.531 49.912C187.203 49.4927 187.978 49.2841 188.857 49.2841Z" fill="white"/>
<path d="M206.396 54.5884C206.396 54.8679 206.363 55.1874 206.296 55.5469H198.187C198.227 56.532 198.494 57.2575 198.986 57.7235C199.479 58.1894 200.091 58.4224 200.824 58.4224C201.476 58.4224 202.02 58.2626 202.453 57.9431C202.885 57.6236 203.161 57.191 203.28 56.6452H206.256C206.11 57.4173 205.797 58.1095 205.318 58.7219C204.838 59.3343 204.224 59.8135 203.471 60.1597C202.719 60.5058 201.882 60.6788 200.964 60.6788C199.885 60.6788 198.926 60.4481 198.088 59.9888C197.249 59.5295 196.596 58.875 196.13 58.023C195.664 57.171 195.431 56.1659 195.431 55.0077C195.431 53.8495 195.664 52.84 196.13 51.9813C196.596 51.1227 197.249 50.4682 198.088 50.0155C198.926 49.5629 199.885 49.3366 200.964 49.3366C202.055 49.3366 203.012 49.5629 203.831 50.0155C204.65 50.4682 205.282 51.0894 205.728 51.8815C206.174 52.6736 206.396 53.5766 206.396 54.5884ZM203.56 54.3088C203.6 53.4036 203.365 52.718 202.852 52.252C202.339 51.7861 201.709 51.5531 200.964 51.5531C200.205 51.5531 199.566 51.7861 199.046 52.252C198.527 52.718 198.241 53.4036 198.187 54.3088H203.56Z" fill="white"/>
<path d="M218.025 49.3366C218.957 49.3366 219.756 49.5562 220.422 49.9956C221.087 50.4349 221.56 51.0273 221.84 51.7728V49.4764H224.636V60.5391H221.84V58.2227C221.56 58.9682 221.087 59.5628 220.422 60.0088C219.756 60.4547 218.957 60.6788 218.025 60.6788C217.093 60.6788 216.254 60.4525 215.508 59.9999C214.763 59.5473 214.181 58.8905 213.762 58.0319C213.342 57.1732 213.132 56.1659 213.132 55.0077C213.132 53.8495 213.342 52.84 213.762 51.9813C214.181 51.1227 214.763 50.4682 215.508 50.0155C216.254 49.5629 217.093 49.3366 218.025 49.3366ZM218.904 51.7927C218.025 51.7927 217.319 52.079 216.787 52.6514C216.254 53.2238 215.988 54.0093 215.988 55.0077C215.988 56.0062 216.254 56.7872 216.787 57.3529C217.319 57.9187 218.025 58.2027 218.904 58.2027C219.756 58.2027 220.459 57.9121 221.012 57.333C221.564 56.7539 221.84 55.9795 221.84 55.0077C221.84 54.0226 221.564 53.2394 221.012 52.6603C220.459 52.0812 219.756 51.7927 218.904 51.7927Z" fill="white"/>
<path d="M232.658 49.3366C234.083 49.3366 235.272 49.7227 236.224 50.4948C237.176 51.2669 237.771 52.3186 238.01 53.6498H235.035C234.915 53.0641 234.642 52.6004 234.216 52.2609C233.79 51.9214 233.25 51.7528 232.598 51.7528C231.852 51.7528 231.231 52.0279 230.732 52.5804C230.232 53.1329 229.982 53.9427 229.982 55.0077C229.982 56.0727 230.23 56.8803 230.729 57.4328C231.229 57.9853 231.852 58.2626 232.598 58.2626C233.25 58.2626 233.79 58.0918 234.216 57.7523C234.642 57.4128 234.915 56.9513 235.035 56.3656H238.01C237.771 57.6968 237.176 58.7485 236.224 59.5207C235.272 60.2928 234.083 60.6788 232.658 60.6788C231.579 60.6788 230.621 60.4481 229.782 59.9888C228.943 59.5295 228.291 58.875 227.825 58.023C227.359 57.171 227.126 56.1659 227.126 55.0077C227.126 53.8495 227.359 52.84 227.825 51.9813C228.291 51.1227 228.943 50.4682 229.782 50.0155C230.621 49.5629 231.579 49.3366 232.658 49.3366Z" fill="white"/>
<path d="M245.434 49.3366C246.858 49.3366 248.048 49.7227 249 50.4948C249.952 51.2669 250.547 52.3186 250.786 53.6498H247.81C247.691 53.0641 247.418 52.6004 246.991 52.2609C246.565 51.9214 246.026 51.7528 245.374 51.7528C244.628 51.7528 244.005 52.0279 243.505 52.5804C243.006 53.1329 242.757 53.9427 242.757 55.0077C242.757 56.0727 243.006 56.8803 243.505 57.4328C244.005 57.9853 244.628 58.2626 245.374 58.2626C246.026 58.2626 246.565 58.0918 246.991 57.7523C247.418 57.4128 247.691 56.9513 247.81 56.3656H250.786C250.547 57.6968 249.952 58.7485 249 59.5207C248.048 60.2928 246.858 60.6788 245.434 60.6788C244.355 60.6788 243.397 60.4481 242.558 59.9888C241.719 59.5295 241.066 58.875 240.6 58.023C240.134 57.171 239.901 56.1659 239.901 55.0077C239.901 53.8495 240.134 52.84 240.6 51.9813C241.066 51.1227 241.719 50.4682 242.558 50.0155C243.397 49.5629 244.355 49.3366 245.434 49.3366Z" fill="white"/>
<path d="M258.397 49.3366C259.475 49.3366 260.445 49.5629 261.304 50.0155C262.163 50.4682 262.837 51.1227 263.33 51.9813C263.823 52.84 264.069 53.8495 264.069 55.0077C264.069 56.1659 263.823 57.171 263.33 58.023C262.837 58.875 262.163 59.5295 261.304 59.9888C260.445 60.4481 259.475 60.6788 258.397 60.6788C257.318 60.6788 256.351 60.4481 255.492 59.9888C254.633 59.5295 253.956 58.875 253.464 58.023C252.971 57.171 252.725 56.1659 252.725 55.0077C252.725 53.8495 252.971 52.84 253.464 51.9813C253.956 51.1227 254.633 50.4682 255.492 50.0155C256.351 49.5629 257.318 49.3366 258.397 49.3366ZM258.397 51.7728C257.611 51.7728 256.946 52.0479 256.4 52.6004C255.854 53.1528 255.581 53.956 255.581 55.0077C255.581 56.0594 255.854 56.8604 256.4 57.4128C256.946 57.9653 257.611 58.2427 258.397 58.2427C259.183 58.2427 259.848 57.9653 260.394 57.4128C260.94 56.8604 261.213 56.0594 261.213 55.0077C261.213 53.956 260.94 53.1528 260.394 52.6004C259.848 52.0479 259.183 51.7728 258.397 51.7728Z" fill="white"/>
<path d="M277.114 49.435V60.4977H274.298V58.2612C274.005 59.0067 273.524 59.588 272.851 60.0074C272.179 60.4267 271.402 60.6375 270.524 60.6375C269.245 60.6375 268.227 60.2181 267.468 59.3795C266.709 58.5408 266.329 57.3693 266.329 55.865V49.435H269.125V55.5455C269.125 56.4241 269.352 57.1052 269.804 57.5911C270.257 58.077 270.87 58.3211 271.642 58.3211C272.454 58.3211 273.1 58.0615 273.579 57.5423C274.059 57.0231 274.298 56.2776 274.298 55.3058V49.435H277.114Z" fill="white"/>
<path d="M286.768 49.3362C288.046 49.3362 289.064 49.7555 289.823 50.5942C290.582 51.4329 290.962 52.611 290.962 54.1287V60.5586H288.166V54.4482C288.166 53.5695 287.939 52.8862 287.486 52.4003C287.034 51.9143 286.415 51.6725 285.629 51.6725C284.83 51.6725 284.191 51.9321 283.712 52.4513C283.232 52.9705 282.993 53.716 282.993 54.6878V60.5586H280.177V49.4959H282.993V51.7124C283.286 50.9669 283.769 50.3834 284.44 49.9641C285.114 49.5447 285.889 49.3362 286.768 49.3362Z" fill="white"/>
<path d="M299.803 58.087V60.5032H298.325C297.087 60.5032 296.139 60.2037 295.48 59.6046C294.821 59.0055 294.49 58.0071 294.49 56.6093V51.8168H292.952V49.4405H294.49V46.7048H297.306V49.4405H299.783V51.8168H297.306V56.6492C297.306 57.1817 297.413 57.5545 297.626 57.7675C297.839 57.9805 298.198 58.087 298.704 58.087H299.803Z" fill="white"/>
<path d="M302.021 46.2917C302.021 45.8391 302.181 45.4686 302.5 45.1824C302.82 44.8961 303.239 44.7541 303.759 44.7541C304.278 44.7541 304.697 44.8961 305.017 45.1824C305.336 45.4686 305.496 45.8391 305.496 46.2917C305.496 46.731 305.336 47.0927 305.017 47.3789C304.697 47.6651 304.278 47.8094 303.759 47.8094C303.239 47.8094 302.82 47.6651 302.5 47.3789C302.181 47.0927 302.021 46.731 302.021 46.2917ZM305.157 49.4668V60.5294H302.341V49.4668H305.157Z" fill="white"/>
<path d="M314.756 49.3362C316.034 49.3362 317.053 49.7555 317.812 50.5942C318.571 51.4329 318.95 52.611 318.95 54.1287V60.5586H316.154V54.4482C316.154 53.5695 315.928 52.8862 315.475 52.4003C315.023 51.9143 314.403 51.6725 313.618 51.6725C312.819 51.6725 312.18 51.9321 311.701 52.4513C311.221 52.9705 310.981 53.716 310.981 54.6878V60.5586H308.165V49.4959H310.981V51.7124C311.274 50.9669 311.758 50.3834 312.431 49.9641C313.103 49.5447 313.877 49.3362 314.756 49.3362Z" fill="white"/>
<path d="M326.224 49.3366C327.156 49.3366 327.955 49.5562 328.621 49.9956C329.287 50.4349 329.759 51.0273 330.039 51.7728V49.4764H332.835V60.579C332.835 61.6041 332.633 62.5248 332.225 63.3436C331.821 64.1623 331.215 64.8057 330.407 65.2716C329.604 65.7376 328.628 65.9706 327.482 65.9706C325.885 65.9706 324.593 65.5911 323.608 64.8323C322.623 64.0735 322.023 63.0418 321.81 61.7372H324.587C324.746 62.2963 325.057 62.7312 325.514 63.044C325.976 63.3569 326.564 63.5144 327.283 63.5144C328.108 63.5144 328.774 63.2703 329.28 62.7844C329.786 62.2985 330.039 61.5641 330.039 60.579V58.2227C329.759 58.9682 329.287 59.5628 328.621 60.0088C327.955 60.4547 327.156 60.6788 326.224 60.6788C325.292 60.6788 324.453 60.4525 323.708 59.9999C322.962 59.5473 322.378 58.8905 321.959 58.0319C321.54 57.1732 321.331 56.1659 321.331 55.0077C321.331 53.8495 321.54 52.84 321.959 51.9813C322.381 51.1227 322.962 50.4682 323.708 50.0155C324.453 49.5629 325.292 49.3366 326.224 49.3366ZM327.103 51.7927C326.224 51.7927 325.519 52.079 324.986 52.6514C324.453 53.2238 324.187 54.0093 324.187 55.0077C324.187 56.0062 324.453 56.7871 324.986 57.3529C325.519 57.9187 326.224 58.2027 327.103 58.2027C327.955 58.2027 328.659 57.9143 329.211 57.333C329.764 56.7539 330.039 55.9795 330.039 55.0077C330.039 54.0226 329.764 53.2416 329.211 52.6625C328.659 52.0834 327.955 51.7927 327.103 51.7927Z" fill="white"/>
<path d="M346.613 58.087V60.5032H345.135C343.897 60.5032 342.949 60.2037 342.29 59.6046C341.631 59.0055 341.3 58.0071 341.3 56.6093V51.8168H339.763V49.4405H341.3V46.7048H344.116V49.4405H346.593V51.8168H344.116V56.6492C344.116 57.1817 344.223 57.5545 344.436 57.7675C344.649 57.9805 345.009 58.087 345.515 58.087H346.613Z" fill="white"/>
<path d="M354.259 49.3366C355.338 49.3366 356.308 49.5629 357.166 50.0155C358.025 50.4682 358.7 51.1227 359.193 51.9813C359.685 52.84 359.932 53.8495 359.932 55.0077C359.932 56.1659 359.685 57.171 359.193 58.023C358.7 58.875 358.025 59.5295 357.166 59.9888C356.308 60.4481 355.338 60.6788 354.259 60.6788C353.181 60.6788 352.213 60.4481 351.355 59.9888C350.496 59.5295 349.819 58.875 349.326 58.023C348.834 57.171 348.587 56.1659 348.587 55.0077C348.587 53.8495 348.834 52.84 349.326 51.9813C349.819 51.1227 350.494 50.4682 351.352 50.0155C352.211 49.5629 353.181 49.3366 354.259 49.3366ZM354.259 51.7728C353.474 51.7728 352.808 52.0479 352.262 52.6004C351.716 53.1528 351.443 53.956 351.443 55.0077C351.443 56.0594 351.716 56.8604 352.262 57.4128C352.808 57.9653 353.474 58.2427 354.259 58.2427C355.045 58.2427 355.711 57.9653 356.257 57.4128C356.803 56.8604 357.076 56.0594 357.076 55.0077C357.076 53.956 356.803 53.1528 356.257 52.6004C355.711 52.0479 355.045 51.7728 354.259 51.7728Z" fill="white"/>
<path d="M381.295 49.3362C382.64 49.3362 383.703 49.7511 384.482 50.5831C385.26 51.4151 385.649 52.5977 385.649 54.1287V60.5586H382.853V54.4482C382.853 53.5962 382.637 52.9394 382.202 52.4801C381.772 52.0208 381.175 51.7923 380.416 51.7923C379.63 51.7923 379.005 52.0386 378.539 52.5312C378.073 53.0237 377.84 53.7426 377.84 54.6878V60.5586H375.043V54.4482C375.043 53.5962 374.828 52.9394 374.393 52.4801C373.963 52.0208 373.366 51.7923 372.607 51.7923C371.821 51.7923 371.195 52.0386 370.729 52.5312C370.263 53.0237 370.03 53.7426 370.03 54.6878V60.5586H367.214V49.4959H370.03V51.5926C370.323 50.8738 370.787 50.3168 371.417 49.9241C372.052 49.5314 372.787 49.3362 373.625 49.3362C374.518 49.3362 375.292 49.5492 375.951 49.9752C376.61 50.4012 377.107 51.0135 377.44 51.8123C377.786 51.0535 378.303 50.45 378.987 50.004C379.675 49.558 380.443 49.3362 381.295 49.3362Z" fill="white"/>
<path d="M399 54.5884C399 54.8679 398.967 55.1874 398.9 55.5469H390.791C390.831 56.532 391.098 57.2575 391.59 57.7235C392.083 58.1894 392.695 58.4224 393.428 58.4224C394.08 58.4224 394.624 58.2626 395.054 57.9431C395.489 57.6236 395.765 57.191 395.884 56.6452H398.86C398.714 57.4173 398.401 58.1095 397.921 58.7219C397.442 59.3343 396.827 59.8135 396.073 60.1597C395.323 60.5058 394.486 60.6788 393.568 60.6788C392.489 60.6788 391.53 60.4481 390.692 59.9888C389.853 59.5295 389.2 58.875 388.734 58.023C388.268 57.171 388.035 56.1659 388.035 55.0077C388.035 53.8495 388.268 52.84 388.734 51.9813C389.2 51.1227 389.853 50.4682 390.692 50.0155C391.53 49.5629 392.489 49.3366 393.568 49.3366C394.659 49.3366 395.614 49.5629 396.432 50.0155C397.251 50.4682 397.886 51.0894 398.33 51.8815C398.778 52.6736 399 53.5766 399 54.5884ZM396.164 54.3088C396.204 53.4036 395.969 52.718 395.454 52.252C394.943 51.7861 394.313 51.5531 393.568 51.5531C392.809 51.5531 392.169 51.7861 391.65 52.252C391.131 52.718 390.845 53.4036 390.791 54.3088H396.164Z" fill="white"/>
<path d="M59.3575 0C64.9852 0 69.7697 0.97625 73.7086 2.92875C77.6498 4.88125 80.6124 7.57925 82.5985 11.0228C84.5846 14.464 85.5788 18.338 85.5788 22.6401C85.5788 27.5391 84.2207 31.7925 81.5067 35.4002C78.7905 39.0078 74.8848 41.5417 69.7874 42.9972L85.7763 70.3055H64.224L50.2546 44.8121V46.6714C50.2546 54.6145 48.1686 60.6562 43.9988 64.7942C39.8268 68.9321 33.9661 71 26.4188 71C18.2746 71 11.8347 68.7502 7.10124 64.2483C2.36782 59.7465 0 53.1923 0 44.5858H19.2688C19.2688 50.4788 21.3525 53.4231 25.5245 53.4231C29.033 53.4231 30.7883 51.1733 30.7883 46.6714V0H59.3575ZM50.2546 31.2799H57.6687C63.0989 31.2799 65.8129 28.8304 65.8129 23.9314C65.8129 21.6151 65.1361 19.7935 63.778 18.4689C62.4199 17.1465 60.3849 16.4831 57.6687 16.4831H50.2546V31.2799Z" fill="white"/>
<path d="M19.3886 13.115H13.2682V19.3852H6.08265V13.115H0V6.27241H6.08265V0H13.2682V6.27241H19.3886V13.115Z" fill="white"/>
</svg>
